PathFileType	4	(X/Y/Z)	C:\Users\WrightLab\Desktop\Jo\P5V139.trc
DataRate	CameraRate	NumFrames	NumMarkers	Units	OrigDataRate	OrigDataStartFrame	OrigNumFrames
100.00	100.00	       17	19	mm	100.00	286	       571
Frame#	Time	Headset_Front			Headset_Back			Headset_Left			Headset_Right			Left_Shoulder			Right_Shoulder			Sternum			C7			Left Elbow			Right Elbow			Left Wrist			Right Wrist			Left ASIS			Right ASIS			S2			Left Knee			Right Knee			Left Ankle			Right Ankle			
		X1	Y1	Z1	X2	Y2	Z2	X3	Y3	Z3	X4	Y4	Z4	X5	Y5	Z5	X6	Y6	Z6	X7	Y7	Z7	X8	Y8	Z8	X9	Y9	Z9	X10	Y10	Z10	X11	Y11	Z11	X12	Y12	Z12	X13	Y13	Z13	X14	Y14	Z14	X15	Y15	Z15	X16	Y16	Z16	X17	Y17	Z17	X18	Y18	Z18	X19	Y19	Z19	

286	2.850	-502.18887	1576.02905	923.69171	-415.86310	1782.65747	700.15454				-581.35699	1655.60132	820.53564	-274.35385	1485.28772	799.41119	-612.02844	1487.28955	562.95215	-529.35669	1350.27161	759.66766	-376.51944	1529.40344	585.82837	-197.38457	1218.42920	800.63666	-634.28992	1226.95557	438.94122	-374.46732	1199.37659	926.02972	-723.50104	1132.03625	633.29382	-438.52240	945.36487	837.99963	-645.50598	981.94519	647.00415	-356.23245	977.29028	551.95538	-372.52176	505.61523	774.56683	-722.46942	587.72168	715.95306	-261.85223	123.81194	570.65961	-767.64252	130.33031	671.98749	
287	2.860	-508.06039	1575.41602	931.06738	-423.28027	1781.64233	706.71497				-586.43878	1654.41663	827.97491	-279.88135	1485.32141	806.60175	-620.67310	1485.93970	571.86346	-536.31769	1349.55029	768.13416	-384.73840	1527.70154	592.52307	-205.24001	1217.14722	803.29175	-644.82275	1226.09644	446.93076	-378.96866	1197.68225	930.21350	-731.84283	1131.56873	642.94720	-443.95319	944.80719	843.49146	-652.38025	981.27997	655.45673	-364.65549	976.07397	555.77203	-377.66217	504.67554	774.36102	-725.73090	581.12402	721.78284	-263.51373	124.76456	572.10980	-784.25323	130.27155	690.30560	
288	2.870	-512.26239	1574.01318	938.05188	-429.99808	1780.77649	712.88879				-592.28748	1653.36853	835.83929	-285.79111	1483.30994	809.22375	-629.29712	1484.96570	580.64148	-542.76880	1348.73071	776.36719	-393.10614	1526.19800	598.00433	-210.45232	1215.84888	807.59985	-655.30145	1225.14368	455.89066	-383.41193	1196.42578	936.12573	-739.84308	1130.62415	652.65887	-448.94400	943.43195	849.23907	-658.07629	979.71497	666.00726	-372.37851	974.86328	559.64563	-383.46466	504.33057	774.70020	-729.21252	573.20398	727.13782	-263.94928	126.20205	572.64142	-797.76990	129.80824	708.47601	
289	2.880	-517.95575	1573.37695	945.55463	-437.29520	1779.61914	719.29187				-598.73401	1653.04883	843.88721	-291.67828	1482.76172	815.20129	-637.62036	1483.44800	589.15265	-549.36011	1347.58545	784.40973	-401.44922	1524.61719	604.43988	-215.55180	1214.43164	811.54559	-665.55518	1224.03650	464.88171	-388.60968	1194.59985	941.32703	-747.95605	1129.87476	662.74463	-454.11014	942.12872	855.33093	-664.73077	978.18921	674.73065	-381.29495	973.74744	564.05231	-388.98911	503.93210	775.30176	-734.23962	564.33136	732.21191	-264.86630	128.14305	573.75421	-808.45404	129.55820	724.10150	
290	2.890	-522.77417	1572.50598	952.74744	-443.69583	1778.12305	725.33948				-604.12610	1651.98315	851.73462	-296.66711	1481.62170	820.79535	-646.05792	1481.77295	597.97974	-555.99658	1346.57117	792.56531	-409.73407	1523.24170	610.85291	-220.41667	1213.23975	815.71930	-675.88397	1222.54871	473.97934	-392.85922	1193.05872	947.45813	-756.63586	1128.71924	673.79498	-460.19553	941.38257	862.17267	-672.48370	977.35236	683.29901	-389.98398	971.99780	569.49048	-395.67886	503.98615	776.87555	-739.98175	554.98462	736.57654	-266.34665	130.02080	574.46429	-815.70758	127.88324	739.25378	
291	2.900	-527.54272	1571.59070	959.80847	-450.89401	1776.71533	731.46698				-609.89526	1650.91003	859.63867	-303.92169	1480.62463	825.87860	-655.07745	1480.94531	607.37195	-561.85626	1345.22461	800.41095	-418.09265	1521.65015	617.27216	-226.50394	1212.61023	819.92444	-686.49707	1221.48047	482.84705	-396.98959	1191.59766	953.35870	-763.79993	1128.32690	683.16522	-466.38925	939.86578	869.31647	-679.80194	976.10089	691.78174	-398.62537	970.56238	574.29718	-401.42380	502.60022	778.86700	-747.63251	547.83398	741.05292	-267.66843	131.29759	575.64374	-821.64362	125.87932	751.23499	
292	2.910	-532.03339	1570.76843	967.06488	-458.23770	1775.40039	737.65759				-616.27295	1650.20642	867.65265	-309.50964	1478.95105	829.59509	-663.62024	1479.72046	616.08112	-569.10052	1344.19470	808.55176	-426.47192	1519.94934	623.86115	-232.72725	1211.20471	822.66620	-697.63080	1221.02161	490.44003	-400.76144	1189.47791	957.85370	-772.13721	1127.58740	694.02087	-473.23389	938.60144	876.79889	-686.47473	974.42334	701.35522	-406.51746	968.80585	579.60132	-408.83685	502.20801	781.74835	-756.34692	543.67419	747.41376	-269.18234	133.57205	577.62018	-825.39075	123.56620	762.46338	
293	2.920	-537.20172	1570.22632	974.28192	-464.67932	1773.65515	743.40442				-621.76715	1648.93823	875.44220	-315.31256	1478.46753	835.42529	-672.06042	1478.20947	624.87695	-575.44611	1343.01172	816.48907	-434.88565	1518.30334	629.84070	-237.90004	1210.04102	825.71814	-708.17096	1218.99524	502.36630	-403.42648	1190.60083	964.22260	-779.51208	1126.40186	704.71954	-480.37817	937.21564	885.01917				-415.29868	967.68878	584.77039	-416.31540	500.60089	784.61908	-763.30438	540.59021	755.97913	-270.71713	135.73436	578.24811	-827.36169	120.48859	772.49548	
294	2.930	-541.82635	1569.09229	981.49658	-471.71225	1771.93835	749.25299				-626.99072	1647.80762	883.08270	-321.46268	1476.32520	838.77362	-680.52057	1476.70459	633.72809	-582.08087	1342.05554	824.54150	-443.21686	1516.53491	635.34137	-244.85785	1208.86511	829.82605	-718.35449	1217.08801	511.88333	-408.37332	1187.32715	970.08264	-787.44818	1125.82581	715.80896	-487.96851	936.15961	894.05554				-423.64807	965.71899	590.91351	-423.77386	498.70346	788.99237	-769.38995	538.71014	767.05304	-272.13950	138.77739	580.70911	-829.77344	116.86801	781.38013	
295	2.940	-546.43567	1568.15466	988.59967	-479.16760	1770.52612	755.06659				-632.35144	1646.23950	890.90131	-327.93942	1475.01172	843.94812	-688.95441	1475.43164	642.37579	-588.73041	1340.69055	832.44208	-451.41791	1514.71399	641.45544	-250.38872	1207.18835	834.28448	-729.03894	1216.27625	521.61304	-412.06082	1187.04443	976.03986	-794.66962	1125.06030	726.62506	-495.75632	934.52386	902.25897	-714.46674	972.53723	734.99573	-431.97873	964.09387	597.18378	-432.23505	498.16675	794.15399	-775.50970	537.64844	778.19971	-274.32397	141.59064	582.45502	-831.43048	116.29458	785.02991	
296	2.950	-551.18744	1567.16956	995.76257	-486.05981	1768.66479	760.84637				-638.48096	1645.27649	898.83929	-334.44086	1474.30774	852.29572	-697.47180	1473.95520	651.19550	-595.60956	1339.10376	840.82831	-459.61771	1512.55896	647.79248	-256.85626	1205.78406	834.32092	-738.99530	1214.01038	532.41534	-415.27322	1184.93359	980.23315	-802.19830	1124.23181	737.85492	-504.31589	932.86615	911.27710	-722.41431	971.68945	743.06213	-440.42892	962.74921	603.20679	-439.85336	499.26437	799.37634	-781.56189	536.72064	789.36548	-277.05743	145.27338	585.02319	-833.01801	115.37028	789.78741	
297	2.960	-555.23010	1565.99939	1002.79388	-493.62936	1767.13782	766.95367				-642.97748	1643.84265	906.40393	-340.04147	1471.87695	854.07343	-705.82159	1472.40039	659.98486	-602.51025	1338.14709	849.16302	-467.96167	1510.32935	654.16486	-263.17023	1203.77954	837.91052	-749.79419	1212.14673	542.77924	-420.61353	1183.41809	985.02045	-810.37964	1123.54089	749.89532	-512.14752	931.76947	920.19147	-731.03137	971.32678	753.29962	-449.23856	959.82611	610.36945	-449.36118	497.43939	802.02643	-788.24310	535.34802	800.73981	-279.88391	148.14421	586.69250	-832.48364	114.43799	792.34308	
298	2.970	-558.86591	1564.90759	1009.78540	-499.90930	1766.18909	773.11072				-648.89203	1643.55188	914.52942	-347.05533	1470.35156	858.46387	-714.14380	1471.17798	668.58942	-609.01819	1337.52844	857.12610	-476.32062	1508.87122	659.84113	-268.69141	1203.07642	840.14972	-760.12964	1210.64685	552.95093	-423.03625	1182.65381	990.69147	-817.70020	1121.46106	762.57928	-520.37958	930.64050	929.12158	-740.15448	970.45905	763.95831	-457.03558	957.91766	618.02570	-457.85934	497.13205	814.77020	-794.96448	534.03851	811.90289	-283.96747	152.85768	589.82233	-829.69476	113.55902	792.49683	
299	2.980	-563.41888	1564.84338	1017.31793	-506.28177	1765.78320	780.08539				-654.20935	1643.12988	923.27325	-352.26331	1469.46716	862.37457	-722.32874	1470.21826	677.06555	-615.52759	1337.45959	864.83942	-484.83469	1508.58459	664.49670	-275.01987	1202.18701	842.76752	-770.80438	1208.80298	563.71552	-428.17780	1181.79480	995.96600	-825.00720	1120.44910	774.45038	-528.34094	930.30322	938.13373	-751.14447	968.70905	772.43304	-464.69489	955.72241	626.39960	-468.81891	495.05475	822.83984	-802.67902	533.37250	823.30511	-289.79340	158.33810	593.18237	-830.67841	113.38702	793.57349	
300	2.990	-566.88629	1564.65039	1024.60498	-513.38873	1766.53418	787.67108				-658.51233	1643.79517	932.52100	-357.91406	1469.54736	869.08771	-730.44684	1469.59961	685.59503	-620.85345	1337.45068	872.24310	-493.37573	1508.56250	671.22394	-280.20966	1201.45349	846.90204	-781.42706	1207.34265	574.17596	-431.01248	1181.63184	1001.20947	-831.82031	1119.59924	786.49670	-536.28546	930.79529	947.44653	-760.85687	968.94196	784.30859	-472.92090	954.70166	635.21545	-479.45554	493.79919	832.88696	-810.96936	534.03339	834.69043	-295.87173	165.56308	597.69647	-833.22443	115.66238	794.03571	
301	3.000	-570.05029	1564.12537	1031.76379	-519.67706	1767.12817	795.05359				-663.80389	1645.43518	942.27917	-363.29880	1469.08643	869.07312	-738.79510	1469.68457	694.00116	-626.91986	1338.14856	879.67694	-502.11871	1508.75720	677.84552	-287.06036	1201.27075	849.88513	-792.06299	1206.88452	585.56580	-435.36444	1180.07544	1005.92310	-838.52252	1118.92126	798.81854	-543.61432	931.57837	955.91675	-770.41089	969.81232	796.58685	-480.86560	953.26154	644.02808	-493.50616	490.48636	842.49933	-818.70660	536.60370	844.36682	-304.03427	173.38754	602.34778	-835.12006	115.99988	794.65399	
302	3.010	-574.00439	1563.78662	1039.17749	-526.76733	1767.93530	802.48486				-668.03070	1646.34216	951.44952	-369.27914	1470.42688	873.49023	-747.28528	1470.19861	702.97717	-632.46228	1338.93542	887.29327	-510.47882	1509.34741	683.92273	-292.56781	1202.53149	852.48065	-801.80884	1206.79492	596.98035	-438.98578	1179.72607	1011.01099	-844.81799	1118.46875	811.24603	-550.78772	933.49335	963.57233	-779.88477	971.05566	808.88049	-488.52234	953.18127	652.67023	-507.76328	490.48853	854.65869	-825.93060	540.45520	852.57318	-314.81998	180.40428	608.32654	-835.95905	116.21949	794.61029	
